<?xml version="1.0" standalone="no"?><!DOCTYPE svg PUBLIC "-//W3C//DTD SVG 1.1//EN" "http://www.w3.org/Graphics/SVG/1.1/DTD/svg11.dtd"><svg t="1593756546502" class="icon" viewBox="0 0 1024 1024" version="1.1" xmlns="http://www.w3.org/2000/svg" p-id="8796" xmlns:xlink="http://www.w3.org/1999/xlink" width="200" height="200"><defs><style type="text/css"></style></defs><path d="M852.366222 342.442667C852.366222 154.766222 699.676444 2.076444 512 2.076444c-187.676444 0-340.366222 152.689778-340.366222 340.366223 0 51.029333 12.003556 101.660444 33.991111 147.399111a28.444444 28.444444 0 0 0 3.015111 9.614222l279.068444 507.704889c0.540444 0.938667 1.28 1.706667 1.905778 2.56 0.540444 0.739556 1.024 1.479111 1.649778 2.190222 2.190222 2.56 4.693333 4.750222 7.537778 6.343111l0.227555 0.199111c1.365333 0.739556 2.816 1.166222 4.238223 1.678223 0.739556 0.256 1.422222 0.625778 2.190222 0.853333 2.360889 0.597333 4.778667 0.938667 7.168 0.938667h0.056889a28.074667 28.074667 0 0 0 7.168-0.967112c0.910222-0.227556 1.763556-0.682667 2.645333-1.024 1.28-0.512 2.588444-0.824889 3.84-1.536l0.170667-0.170666a28.017778 28.017778 0 0 0 7.594666-6.4c0.597333-0.682667 1.080889-1.422222 1.621334-2.161778 0.597333-0.881778 1.365333-1.621333 1.905777-2.588444l277.76-509.184c0.568889-1.024 0.568889-2.104889 0.967112-3.157334a336.668444 336.668444 0 0 0 36.010666-152.291555zM512 58.965333c156.302222 0 283.477333 127.175111 283.477333 283.477334a280.376889 280.376889 0 0 1-30.520889 128.113777c-0.341333 0.625778-0.284444 1.336889-0.568888 1.962667L512.568889 934.229333 261.603556 477.667556c-0.512-1.621333-0.597333-3.299556-1.393778-4.835556a280.433778 280.433778 0 0 1-31.687111-130.360889c0-156.359111 127.175111-283.505778 283.477333-283.505778z" p-id="8797"></path><path d="M512 501.333333a142.051556 142.051556 0 0 1-141.909333-141.852444A142.051556 142.051556 0 0 1 512 217.6a142.051556 142.051556 0 0 1 141.880889 141.880889A142.023111 142.023111 0 0 1 512 501.333333z m0-226.844444a85.105778 85.105778 0 0 0-85.020444 84.992c0 46.848 38.144 84.963556 85.020444 84.963555s84.992-38.115556 84.992-84.963555A85.077333 85.077333 0 0 0 512 274.488889z" p-id="8798"></path></svg>