<?xml version="1.0" standalone="no"?><!DOCTYPE svg PUBLIC "-//W3C//DTD SVG 1.1//EN" "http://www.w3.org/Graphics/SVG/1.1/DTD/svg11.dtd"><svg t="1594001231703" class="icon" viewBox="0 0 1024 1024" version="1.1" xmlns="http://www.w3.org/2000/svg" p-id="19061" xmlns:xlink="http://www.w3.org/1999/xlink" width="200" height="200"><defs><style type="text/css"></style></defs><path d="M512 1024c282.304 0 512-229.696 512-512s-229.696-512-512-512-512 229.696-512 512 229.696 512 512 512zM512 32c264.672 0 480 215.328 480 480s-215.328 480-480 480-480-215.328-480-480 215.328-480 480-480zM641.952 696.576c3.136 3.136 7.232 4.672 11.328 4.672s8.192-1.568 11.328-4.672c6.24-6.24 6.24-16.384 0-22.624l-152.608-152.576 0-223.168c0-8.832-7.168-16-16-16s-16 7.168-16 16l0 229.792c0 4.256 1.696 8.32 4.672 11.328l157.28 157.248zM96 512c0 17.664 14.336 32 32 32s32-14.336 32-32c0-17.664-14.336-32-32-32s-32 14.336-32 32zM864 512c0 17.664 14.336 32 32 32s32-14.336 32-32c0-17.664-14.336-32-32-32s-32 14.336-32 32zM480 128c0 17.664 14.336 32 32 32s32-14.336 32-32c0-17.664-14.336-32-32-32s-32 14.336-32 32zM480 896c0 17.664 14.336 32 32 32s32-14.336 32-32c0-17.664-14.336-32-32-32s-32 14.336-32 32zM224 256c0 17.664 14.336 32 32 32s32-14.336 32-32c0-17.664-14.336-32-32-32s-32 14.336-32 32zM736 768c0 17.664 14.336 32 32 32s32-14.336 32-32c0-17.664-14.336-32-32-32s-32 14.336-32 32zM768 256c0 17.664 14.336 32 32 32s32-14.336 32-32c0-17.664-14.336-32-32-32s-32 14.336-32 32zM224 768c0 17.664 14.336 32 32 32s32-14.336 32-32c0-17.664-14.336-32-32-32s-32 14.336-32 32z" p-id="19062"></path></svg>