<?xml version="1.0" standalone="no"?>
<!DOCTYPE svg PUBLIC "-//W3C//DTD SVG 1.1//EN" "http://www.w3.org/Graphics/SVG/1.1/DTD/svg11.dtd"><svg t="1594879611798"
    class="icon" viewBox="0 0 1024 1024" version="1.1" xmlns="http://www.w3.org/2000/svg" p-id="10631"
    xmlns:xlink="http://www.w3.org/1999/xlink" width="200" height="200">
    <defs>
        <style type="text/css"></style>
    </defs>
    <path
        d="M485.923159 587.212911h247.72999a26.076841 26.076841 0 0 1 0 52.153683h-247.72999a26.076841 26.076841 0 0 1 0-52.153683z"
         p-id="10632"></path>
    <path
        d="M485.923159 365.559762a26.076841 26.076841 0 0 1 26.076841 26.076841v221.653149a26.076841 26.076841 0 0 1-52.153682 0V391.636603a26.076841 26.076841 0 0 1 26.076841-26.076841z"
         p-id="10633"></path>
    <path
        d="M517.084984 229.177883c-6.910363 24.381846-225.564676-21.904547-239.124633-59.585582S441.462145-9.294829 455.804407 0.483986c39.245646 28.423757 83.837044 148.898763 61.280577 228.693897z"
         p-id="10634"></path>
    <path
        d="M538.076841 79.496815c-8.605358 0-17.341099-0.782305-26.076841-0.782305-66.495945 0-57.629819 28.814909-115.129254 53.979061L485.923159 117.829771v13.820726c8.605358 0 17.341099-0.782305 26.076841-0.782305s17.471484 0 26.076841 0.782305A417.229458 417.229458 0 1 1 94.770542 548.09765a408.102563 408.102563 0 0 1 7.4319-78.230524q1.825379-9.9092 4.172294-19.557631A26.076841 26.076841 0 0 0 81.080201 417.713444a26.076841 26.076841 0 0 0-25.294536 20.079168Q51.874138 453.699485 49.13607 469.867126A469.38314 469.38314 0 1 0 538.076841 79.496815z"
         p-id="10635"></path>
</svg>