<?xml version="1.0" standalone="no"?>
<!DOCTYPE svg PUBLIC "-//W3C//DTD SVG 1.1//EN" "http://www.w3.org/Graphics/SVG/1.1/DTD/svg11.dtd"><svg t="1594879733241"
    class="icon" viewBox="0 0 1024 1024" version="1.1" xmlns="http://www.w3.org/2000/svg" p-id="12551"
    xmlns:xlink="http://www.w3.org/1999/xlink" width="200" height="200">
    <defs>
        <style type="text/css"></style>
    </defs>
    <path
        d="M61.44 414.72l-41.813333-9.386667C11.946667 440.32 8.533333 477.866667 8.533333 512h42.666667c0-34.133333 3.413333-65.706667 10.24-97.28zM97.28 226.986667C76.8 256 59.733333 287.573333 46.08 320.853333l39.253333 16.213334c12.8-29.866667 28.16-58.88 46.933334-85.333334l-34.986667-24.746666zM87.893333 781.653333c19.626667 29.866667 41.813333 58.026667 67.413334 82.773334l29.866666-29.866667c-23.04-23.04-43.52-48.64-61.44-75.946667l-35.84 23.04zM999.253333 423.253333c-5.973333-34.986667-16.213333-69.973333-29.866666-102.4l-39.253334 16.213334c12.8 29.866667 21.333333 61.44 27.306667 93.866666l41.813333-7.68zM238.08 92.16c-29.866667 19.626667-58.026667 41.813333-82.773333 67.413333l29.866666 29.866667c23.04-23.04 48.64-43.52 75.946667-61.44l-23.04-35.84zM927.573333 242.346667c-19.626667-29.866667-41.813333-58.026667-66.56-82.773334l-29.866666 29.866667c23.04 23.04 43.52 48.64 61.44 75.946667l34.986666-23.04zM792.746667 101.546667c-29.013333-20.48-60.586667-37.546667-93.866667-51.2L682.666667 90.453333c29.866667 12.8 58.88 28.16 85.333333 46.933334l24.746667-35.84zM616.96 23.893333C581.973333 16.213333 546.133333 12.8 512 12.8v42.666667c25.6 0 63.146667 3.413333 94.72 10.24l10.24-41.813334zM16.213333 600.746667c5.973333 34.986667 16.213333 69.973333 29.866667 102.4l39.253333-16.213334c-12.8-29.866667-21.333333-61.44-27.306666-93.866666l-41.813334 7.68zM754.346667 896l23.04 35.84c29.866667-19.626667 58.026667-41.813333 82.773333-67.413333l-29.866667-29.866667c-23.04 23.04-48.64 44.373333-75.946666 61.44zM222.72 922.453333c29.013333 20.48 60.586667 37.546667 93.866667 51.2l16.213333-39.253333c-29.866667-12.8-58.88-28.16-85.333333-46.933333l-24.746667 34.986666zM883.2 772.266667l34.986667 24.746666c20.48-29.013333 37.546667-60.586667 51.2-93.866666l-39.253334-16.213334c-12.8 29.866667-29.013333 58.88-46.933333 85.333334zM964.266667 512c0 32.426667-3.413333 65.706667-10.24 97.28l41.813333 9.386667c7.68-34.986667 11.093333-69.973333 11.093333-105.813334h-42.666666zM588.8 961.706667l7.68 41.813333c34.986667-5.973333 69.973333-16.213333 102.4-29.866667l-16.213333-39.253333c-29.866667 11.946667-61.44 21.333333-93.866667 27.306667zM418.986667 20.48c-34.986667 6.826667-69.12 16.213333-102.4 29.866667l16.213333 39.253333C362.666667 76.8 394.24 68.266667 426.666667 62.293333l-7.68-41.813333zM399.36 1000.106667c34.986667 7.68 69.973333 11.093333 104.106667 11.093333v-42.666667c-25.6 0-64-3.413333-96.426667-10.24l-7.68 41.813334zM512 204.8c-42.666667 0-76.8 34.133333-76.8 76.8 7.68 79.36 34.133333 307.2 34.133333 307.2 0 23.893333 18.773333 42.666667 42.666667 42.666667s42.666667-18.773333 42.666667-42.666667c0 0 26.453333-239.786667 34.133333-307.2 0-42.666667-34.133333-76.8-76.8-76.8z"
        p-id="12552"></path>
    <path d="M512 759.466667m-42.666667 0a42.666667 42.666667 0 1 0 85.333334 0 42.666667 42.666667 0 1 0-85.333334 0Z"
        p-id="12553"></path>
</svg>