<?xml version="1.0" standalone="no"?><!DOCTYPE svg PUBLIC "-//W3C//DTD SVG 1.1//EN" "http://www.w3.org/Graphics/SVG/1.1/DTD/svg11.dtd"><svg t="1594883148532" class="icon" viewBox="0 0 1048 1024" version="1.1" xmlns="http://www.w3.org/2000/svg" p-id="15411" xmlns:xlink="http://www.w3.org/1999/xlink" width="204.6875" height="200"><defs><style type="text/css"></style></defs><path d="M983.813528 312.807479c-25.790498-60.959359-62.717802-115.764167-109.707308-162.753672-47.087197-47.087197-101.892005-84.014501-162.851364-109.805C648.146289 13.579088 581.130071 0 512.062335 0c-69.067735 0-136.083953 13.579088-199.290211 40.248807C251.812765 66.039305 197.105648 102.966609 150.018451 150.053807S66.101641 251.848121 40.311143 312.807479c-26.66972 63.108567-40.248807 130.124785-40.248808 199.290212 0 69.067735 13.579088 136.083953 40.248808 199.192521 25.790498 60.959359 62.717802 115.764167 109.707308 162.753673C197.105648 921.033391 251.812765 957.960695 312.772124 983.751193c63.108567 26.66972 130.124785 40.248807 199.290211 40.248807 69.067735 0 136.083953-13.579088 199.192521-40.248807 60.959359-25.790498 115.764167-62.717802 162.753673-109.707308s83.91681-101.794314 109.707308-162.753673c26.66972-63.108567 40.248807-130.124785 40.248807-199.192521 0.097691-69.165426-13.481397-136.181645-40.151116-199.290212z m-46.696432 199.192521c0 234.361381-190.693379 425.054761-425.054761 425.054761-234.361381 0-425.152452-190.693379-425.152451-425.054761C86.909884 277.638619 277.603263 86.847548 512.062335 86.847548c234.361381 0.097691 425.054761 190.79107 425.054761 425.152452z" p-id="15412"></path><path d="M285.613948 442.5415H342.665655v139.405457h-56.954016V442.5415z m84.014501 0h56.954016v139.405457h-56.954016V442.5415z m199.387903 0H455.108319v139.405457h113.908033v68.970044l169.39668-138.428545-169.39668-138.917v68.970044z m0 0" p-id="15413"></path></svg>